# xmcd
#
# Track frame offsets: 
#        150
#        13143
#        26072
#        37165
#        48914
#        67495
#        76837
#        87144
#        98299
#        111109
#        122038
#        134762
#        146112
#        156782
#        167244
#        180228
#        191734
#        206121
#        216051
#        228250
#
# Disc length: 3179 seconds
#
# Revision: 0
# Processed by: cddbd v1.5.2PL0 Copyright (c) Steve Scherf et al.
# Submitted via: ExactAudioCopyFreeDBPlugin 1.0
#
DISCID=1d0c6914
DTITLE=Ben E. King - The Very Best Of Percy Sledge and Ben E. King: Ben 
DTITLE=E. King
DYEAR=2015
DGENRE=Rhythm and Blues
TTITLE0=Stand By Me
TTITLE1=Spanish Harlem
TTITLE2=Save The Last Dance For Me
TTITLE3=Dream Lover
TTITLE4=Supernatural Thing Part 1
TTITLE5=I Count The Tears
TTITLE6=Young Boy Blues
TTITLE7=I Could Have Danced All Night
TTITLE8=Moon River
TTITLE9=This Magic Moment
TTITLE10=Don't Play That Song (You Lied)
TTITLE11=Walking In The Footsteps Of A Fool
TTITLE12=Dance With Me
TTITLE13=Here Comes The Night
TTITLE14=Amor
TTITLE15=What Now My Love
TTITLE16=It's All Over
TTITLE17=River Of Tears
TTITLE18=I Swear By The Stars Above
TTITLE19=What Is Soul?
EXTD=
EXTT0=
EXTT1=
EXTT2=
EXTT3=
EXTT4=
EXTT5=
EXTT6=
EXTT7=
EXTT8=
EXTT9=
EXTT10=
EXTT11=
EXTT12=
EXTT13=
EXTT14=
EXTT15=
EXTT16=
EXTT17=
EXTT18=
EXTT19=
PLAYORDER=
